<mxfile host="app.diagrams.net" modified="2021-05-10T13:29:27.477Z" agent="5.0 (Macintosh; Intel Mac OS X 10_15_7) AppleWebKit/537.36 (KHTML, like Gecko) Chrome/90.0.4430.93 Safari/537.36" etag="IsjufX9vNO3LNb1cLmkP" version="14.6.11" type="github">
  <diagram name="Page-1" id="c4acf3e9-155e-7222-9cf6-157b1a14988f">
    <mxGraphModel dx="876" dy="533" grid="1" gridSize="10" guides="1" tooltips="1" connect="1" arrows="1" fold="1" page="1" pageScale="1" pageWidth="850" pageHeight="1100" background="#ffffff" math="0" shadow="0">
      <root>
        <mxCell id="0" />
        <mxCell id="1" parent="0" />
        <mxCell id="5d2195bd80daf111-18" value="&lt;p style=&quot;margin: 0px ; margin-top: 4px ; text-align: center&quot;&gt;&lt;b&gt;pumpTruck&lt;/b&gt;&lt;/p&gt;&lt;hr size=&quot;1&quot;&gt;&lt;p style=&quot;margin: 0px ; margin-left: 4px&quot;&gt;+ id: uint64&lt;br&gt;+ no: string 车牌&lt;/p&gt;&lt;p style=&quot;margin: 0px 0px 0px 4px ; font-size: 10px&quot;&gt;&lt;span style=&quot;font-size: 10px&quot;&gt;+ status: uint8&amp;nbsp;&lt;/span&gt;&lt;font style=&quot;font-size: 10px&quot;&gt;&lt;span style=&quot;background-color: transparent ; color: rgb(103 , 143 , 0) ; font-family: , &amp;#34;helvetica neue&amp;#34; , &amp;#34;helvetica&amp;#34; , &amp;#34;pingfang sc&amp;#34; , &amp;#34;microsoft yahei&amp;#34; , &amp;#34;source han sans sc&amp;#34; , &amp;#34;noto sans cjk sc&amp;#34; , &amp;#34;wenquanyi micro hei&amp;#34; , sans-serif ; letter-spacing: 0pt ; font-size: 10px&quot;&gt;0 Normal 正常 1 Maintenance 维修 2 Stop 停用  3 TimeOff 休息&lt;/span&gt;&lt;/font&gt;&lt;/p&gt;&lt;p style=&quot;margin: 0px 0px 0px 4px ; font-size: 10px&quot;&gt;&lt;font style=&quot;font-size: 10px&quot;&gt;+ productionPerHour: float 每小时生产量&lt;/font&gt;&lt;/p&gt;&lt;p style=&quot;margin: 0px 0px 0px 4px ; font-size: 10px&quot;&gt;&lt;font style=&quot;font-size: 10px&quot;&gt;+ productionDetailId:&amp;nbsp; uint64 关联的生产计划id, null则表示没有生产计划&lt;/font&gt;&lt;/p&gt;&lt;p style=&quot;margin: 0px 0px 0px 4px ; font-size: 10px&quot;&gt;&lt;font style=&quot;font-size: 10px&quot;&gt;&lt;span style=&quot;background-color: transparent ; color: rgb(103 , 143 , 0) ; font-family: , &amp;#34;helvetica neue&amp;#34; , &amp;#34;helvetica&amp;#34; , &amp;#34;pingfang sc&amp;#34; , &amp;#34;microsoft yahei&amp;#34; , &amp;#34;source han sans sc&amp;#34; , &amp;#34;noto sans cjk sc&amp;#34; , &amp;#34;wenquanyi micro hei&amp;#34; , sans-serif ; letter-spacing: 0pt ; font-size: 10px&quot;&gt;&lt;br&gt;&lt;/span&gt;&lt;/font&gt;&lt;/p&gt;&lt;p style=&quot;margin: 0px 0px 0px 4px ; font-size: 10px&quot;&gt;&lt;font style=&quot;font-size: 10px&quot;&gt;&lt;span style=&quot;background-color: transparent ; color: rgb(103 , 143 , 0) ; font-family: , &amp;#34;helvetica neue&amp;#34; , &amp;#34;helvetica&amp;#34; , &amp;#34;pingfang sc&amp;#34; , &amp;#34;microsoft yahei&amp;#34; , &amp;#34;source han sans sc&amp;#34; , &amp;#34;noto sans cjk sc&amp;#34; , &amp;#34;wenquanyi micro hei&amp;#34; , sans-serif ; letter-spacing: 0pt ; font-size: 10px&quot;&gt;&lt;br&gt;&lt;/span&gt;&lt;/font&gt;&lt;/p&gt;&lt;p style=&quot;margin: 0px 0px 0px 4px ; font-size: 10px&quot;&gt;&lt;font style=&quot;font-size: 10px&quot;&gt;&lt;span style=&quot;background-color: transparent ; color: rgb(103 , 143 , 0) ; font-family: , &amp;#34;helvetica neue&amp;#34; , &amp;#34;helvetica&amp;#34; , &amp;#34;pingfang sc&amp;#34; , &amp;#34;microsoft yahei&amp;#34; , &amp;#34;source han sans sc&amp;#34; , &amp;#34;noto sans cjk sc&amp;#34; , &amp;#34;wenquanyi micro hei&amp;#34; , sans-serif ; letter-spacing: 0pt ; font-size: 10px&quot;&gt;&lt;br&gt;&lt;/span&gt;&lt;/font&gt;&lt;/p&gt;&lt;p style=&quot;margin: 0px 0px 0px 4px ; font-size: 10px&quot;&gt;&lt;font style=&quot;font-size: 10px&quot;&gt;&lt;span style=&quot;background-color: transparent ; color: rgb(103 , 143 , 0) ; font-family: , &amp;#34;helvetica neue&amp;#34; , &amp;#34;helvetica&amp;#34; , &amp;#34;pingfang sc&amp;#34; , &amp;#34;microsoft yahei&amp;#34; , &amp;#34;source han sans sc&amp;#34; , &amp;#34;noto sans cjk sc&amp;#34; , &amp;#34;wenquanyi micro hei&amp;#34; , sans-serif ; letter-spacing: 0pt ; font-size: 10px&quot;&gt;&lt;br&gt;&lt;/span&gt;&lt;/font&gt;&lt;/p&gt;&lt;font style=&quot;font-size: 10px&quot;&gt;&lt;/font&gt;&lt;div style=&quot;font-size: 10px&quot;&gt;&lt;div class=&quot;document&quot; style=&quot;font-size: 10px&quot;&gt;&lt;p class=&quot;paragraph text-align-type-left pap-line-1.3 pap-line-rule-auto pap-spacing-before-3pt pap-spacing-after-3pt&quot; style=&quot;line-height: 130% ; margin-top: 4px ; margin-bottom: 4px ; font-size: 10px&quot;&gt;&lt;font style=&quot;font-size: 10px&quot;&gt;&lt;span style=&quot;font-family: , &amp;#34;helvetica neue&amp;#34; , &amp;#34;helvetica&amp;#34; , &amp;#34;pingfang sc&amp;#34; , &amp;#34;microsoft yahei&amp;#34; , &amp;#34;source han sans sc&amp;#34; , &amp;#34;noto sans cjk sc&amp;#34; , &amp;#34;wenquanyi micro hei&amp;#34; , sans-serif ; color: rgb(51 , 51 , 51) ; background: transparent ; letter-spacing: 0pt ; vertical-align: baseline ; font-size: 10px&quot;&gt;&lt;/span&gt;&lt;/font&gt;&lt;/p&gt;&lt;/div&gt;&lt;/div&gt;&lt;hr size=&quot;1&quot; style=&quot;font-size: 10px&quot;&gt;&lt;p style=&quot;margin: 0px ; margin-left: 4px&quot;&gt;&lt;br&gt;&lt;/p&gt;&lt;p style=&quot;margin: 0px ; margin-left: 4px&quot;&gt;&lt;br&gt;&lt;/p&gt;" style="verticalAlign=top;align=left;overflow=fill;fontSize=12;fontFamily=Helvetica;html=1;rounded=0;shadow=0;comic=0;labelBackgroundColor=none;strokeWidth=1" parent="1" vertex="1">
          <mxGeometry x="50" y="60" width="240" height="110" as="geometry" />
        </mxCell>
        <mxCell id="L9_oCywaG9pHtZvXco6K-1" style="edgeStyle=orthogonalEdgeStyle;rounded=0;orthogonalLoop=1;jettySize=auto;html=1;exitX=0.5;exitY=1;exitDx=0;exitDy=0;" edge="1" parent="1" source="5d2195bd80daf111-18" target="5d2195bd80daf111-18">
          <mxGeometry relative="1" as="geometry" />
        </mxCell>
        <mxCell id="L9_oCywaG9pHtZvXco6K-2" value="&lt;p style=&quot;margin: 0px ; margin-top: 4px ; text-align: center&quot;&gt;&lt;b&gt;mixerTruck&lt;/b&gt;&lt;/p&gt;&lt;hr size=&quot;1&quot;&gt;&lt;p style=&quot;margin: 0px ; margin-left: 4px&quot;&gt;+ id: uint64&lt;br&gt;+ no: string 车牌&lt;/p&gt;&lt;p style=&quot;margin: 0px 0px 0px 4px ; font-size: 10px&quot;&gt;&lt;span style=&quot;font-size: 10px&quot;&gt;+ status: uint8&amp;nbsp;&lt;/span&gt;&lt;font style=&quot;font-size: 10px&quot;&gt;&lt;span style=&quot;background-color: transparent ; color: rgb(103 , 143 , 0) ; font-family: , &amp;#34;helvetica neue&amp;#34; , &amp;#34;helvetica&amp;#34; , &amp;#34;pingfang sc&amp;#34; , &amp;#34;microsoft yahei&amp;#34; , &amp;#34;source han sans sc&amp;#34; , &amp;#34;noto sans cjk sc&amp;#34; , &amp;#34;wenquanyi micro hei&amp;#34; , sans-serif ; letter-spacing: 0pt ; font-size: 10px&quot;&gt;0 Normal 正常 1 Maintenance 维修 2 Stop 停用  3 TimeOff 休息&lt;/span&gt;&lt;/font&gt;&lt;/p&gt;&lt;p style=&quot;margin: 0px 0px 0px 4px ; font-size: 10px&quot;&gt;&lt;font style=&quot;font-size: 10px&quot;&gt;+ capacity: float 容量&lt;/font&gt;&lt;/p&gt;&lt;p style=&quot;margin: 0px 0px 0px 4px ; font-size: 10px&quot;&gt;&lt;font style=&quot;font-size: 10px&quot;&gt;+ productionDetailId:&amp;nbsp; uint64 关联的生产计划id, null则表示没有生产计划&lt;/font&gt;&lt;/p&gt;&lt;p style=&quot;margin: 0px 0px 0px 4px ; font-size: 10px&quot;&gt;&lt;font style=&quot;font-size: 10px&quot;&gt;&lt;span style=&quot;background-color: transparent ; color: rgb(103 , 143 , 0) ; font-family: , &amp;#34;helvetica neue&amp;#34; , &amp;#34;helvetica&amp;#34; , &amp;#34;pingfang sc&amp;#34; , &amp;#34;microsoft yahei&amp;#34; , &amp;#34;source han sans sc&amp;#34; , &amp;#34;noto sans cjk sc&amp;#34; , &amp;#34;wenquanyi micro hei&amp;#34; , sans-serif ; letter-spacing: 0pt ; font-size: 10px&quot;&gt;&lt;br&gt;&lt;/span&gt;&lt;/font&gt;&lt;/p&gt;&lt;p style=&quot;margin: 0px 0px 0px 4px ; font-size: 10px&quot;&gt;&lt;font style=&quot;font-size: 10px&quot;&gt;&lt;span style=&quot;background-color: transparent ; color: rgb(103 , 143 , 0) ; font-family: , &amp;#34;helvetica neue&amp;#34; , &amp;#34;helvetica&amp;#34; , &amp;#34;pingfang sc&amp;#34; , &amp;#34;microsoft yahei&amp;#34; , &amp;#34;source han sans sc&amp;#34; , &amp;#34;noto sans cjk sc&amp;#34; , &amp;#34;wenquanyi micro hei&amp;#34; , sans-serif ; letter-spacing: 0pt ; font-size: 10px&quot;&gt;&lt;br&gt;&lt;/span&gt;&lt;/font&gt;&lt;/p&gt;&lt;p style=&quot;margin: 0px 0px 0px 4px ; font-size: 10px&quot;&gt;&lt;font style=&quot;font-size: 10px&quot;&gt;&lt;span style=&quot;background-color: transparent ; color: rgb(103 , 143 , 0) ; font-family: , &amp;#34;helvetica neue&amp;#34; , &amp;#34;helvetica&amp;#34; , &amp;#34;pingfang sc&amp;#34; , &amp;#34;microsoft yahei&amp;#34; , &amp;#34;source han sans sc&amp;#34; , &amp;#34;noto sans cjk sc&amp;#34; , &amp;#34;wenquanyi micro hei&amp;#34; , sans-serif ; letter-spacing: 0pt ; font-size: 10px&quot;&gt;&lt;br&gt;&lt;/span&gt;&lt;/font&gt;&lt;/p&gt;&lt;p style=&quot;margin: 0px 0px 0px 4px ; font-size: 10px&quot;&gt;&lt;font style=&quot;font-size: 10px&quot;&gt;&lt;span style=&quot;background-color: transparent ; color: rgb(103 , 143 , 0) ; font-family: , &amp;#34;helvetica neue&amp;#34; , &amp;#34;helvetica&amp;#34; , &amp;#34;pingfang sc&amp;#34; , &amp;#34;microsoft yahei&amp;#34; , &amp;#34;source han sans sc&amp;#34; , &amp;#34;noto sans cjk sc&amp;#34; , &amp;#34;wenquanyi micro hei&amp;#34; , sans-serif ; letter-spacing: 0pt ; font-size: 10px&quot;&gt;&lt;br&gt;&lt;/span&gt;&lt;/font&gt;&lt;/p&gt;&lt;font style=&quot;font-size: 10px&quot;&gt;&lt;/font&gt;&lt;div style=&quot;font-size: 10px&quot;&gt;&lt;div class=&quot;document&quot; style=&quot;font-size: 10px&quot;&gt;&lt;p class=&quot;paragraph text-align-type-left pap-line-1.3 pap-line-rule-auto pap-spacing-before-3pt pap-spacing-after-3pt&quot; style=&quot;line-height: 130% ; margin-top: 4px ; margin-bottom: 4px ; font-size: 10px&quot;&gt;&lt;font style=&quot;font-size: 10px&quot;&gt;&lt;span style=&quot;font-family: , &amp;#34;helvetica neue&amp;#34; , &amp;#34;helvetica&amp;#34; , &amp;#34;pingfang sc&amp;#34; , &amp;#34;microsoft yahei&amp;#34; , &amp;#34;source han sans sc&amp;#34; , &amp;#34;noto sans cjk sc&amp;#34; , &amp;#34;wenquanyi micro hei&amp;#34; , sans-serif ; color: rgb(51 , 51 , 51) ; background: transparent ; letter-spacing: 0pt ; vertical-align: baseline ; font-size: 10px&quot;&gt;&lt;/span&gt;&lt;/font&gt;&lt;/p&gt;&lt;/div&gt;&lt;/div&gt;&lt;hr size=&quot;1&quot; style=&quot;font-size: 10px&quot;&gt;&lt;p style=&quot;margin: 0px ; margin-left: 4px&quot;&gt;&lt;br&gt;&lt;/p&gt;&lt;p style=&quot;margin: 0px ; margin-left: 4px&quot;&gt;&lt;br&gt;&lt;/p&gt;" style="verticalAlign=top;align=left;overflow=fill;fontSize=12;fontFamily=Helvetica;html=1;rounded=0;shadow=0;comic=0;labelBackgroundColor=none;strokeWidth=1" vertex="1" parent="1">
          <mxGeometry x="50" y="210" width="240" height="110" as="geometry" />
        </mxCell>
        <mxCell id="L9_oCywaG9pHtZvXco6K-3" value="&lt;p style=&quot;margin: 0px ; margin-top: 4px ; text-align: center&quot;&gt;&lt;b&gt;terminal&lt;/b&gt;&lt;/p&gt;&lt;hr size=&quot;1&quot;&gt;&lt;p style=&quot;margin: 0px ; margin-left: 4px&quot;&gt;+ id: uint64&lt;br&gt;+ siteId: uint64 站点&lt;/p&gt;&lt;p style=&quot;margin: 0px 0px 0px 4px ; font-size: 10px&quot;&gt;&lt;span style=&quot;font-size: 10px&quot;&gt;+ time_consuming: float &lt;font color=&quot;#678f00&quot;&gt;每次生产耗时&lt;/font&gt;&lt;/span&gt;&lt;/p&gt;&lt;p style=&quot;margin: 0px 0px 0px 4px ; font-size: 10px&quot;&gt;&lt;font style=&quot;font-size: 10px&quot;&gt;+ capacity: float 每次最多生产&lt;/font&gt;&lt;/p&gt;&lt;span style=&quot;font-size: 10px&quot;&gt;&amp;nbsp;+ status: uint8&amp;nbsp;&lt;/span&gt;&lt;font style=&quot;font-size: 10px&quot;&gt;&lt;span style=&quot;background-color: transparent ; color: rgb(103 , 143 , 0) ; letter-spacing: 0pt&quot;&gt;0 Normal 正常 1 Maintenance 维修 2 Stop 停用 3 TimeOff 休息&lt;/span&gt;&lt;/font&gt;&lt;p style=&quot;margin: 0px 0px 0px 4px ; font-size: 10px&quot;&gt;&lt;span&gt;+ siteName:&amp;nbsp; string 站点名称&lt;/span&gt;&lt;br&gt;&lt;/p&gt;&lt;p style=&quot;margin: 0px 0px 0px 4px ; font-size: 10px&quot;&gt;&lt;span&gt;+ no: 搅拌台编号&lt;/span&gt;&lt;/p&gt;&lt;br&gt;&lt;p style=&quot;margin: 0px 0px 0px 4px ; font-size: 10px&quot;&gt;&lt;font style=&quot;font-size: 10px&quot;&gt;&lt;span style=&quot;background-color: transparent ; color: rgb(103 , 143 , 0) ; font-family: , &amp;#34;helvetica neue&amp;#34; , &amp;#34;helvetica&amp;#34; , &amp;#34;pingfang sc&amp;#34; , &amp;#34;microsoft yahei&amp;#34; , &amp;#34;source han sans sc&amp;#34; , &amp;#34;noto sans cjk sc&amp;#34; , &amp;#34;wenquanyi micro hei&amp;#34; , sans-serif ; letter-spacing: 0pt ; font-size: 10px&quot;&gt;&lt;br&gt;&lt;/span&gt;&lt;/font&gt;&lt;/p&gt;&lt;p style=&quot;margin: 0px 0px 0px 4px ; font-size: 10px&quot;&gt;&lt;font style=&quot;font-size: 10px&quot;&gt;&lt;span style=&quot;background-color: transparent ; color: rgb(103 , 143 , 0) ; font-family: , &amp;#34;helvetica neue&amp;#34; , &amp;#34;helvetica&amp;#34; , &amp;#34;pingfang sc&amp;#34; , &amp;#34;microsoft yahei&amp;#34; , &amp;#34;source han sans sc&amp;#34; , &amp;#34;noto sans cjk sc&amp;#34; , &amp;#34;wenquanyi micro hei&amp;#34; , sans-serif ; letter-spacing: 0pt ; font-size: 10px&quot;&gt;&lt;br&gt;&lt;/span&gt;&lt;/font&gt;&lt;/p&gt;&lt;p style=&quot;margin: 0px 0px 0px 4px ; font-size: 10px&quot;&gt;&lt;font style=&quot;font-size: 10px&quot;&gt;&lt;span style=&quot;background-color: transparent ; color: rgb(103 , 143 , 0) ; font-family: , &amp;#34;helvetica neue&amp;#34; , &amp;#34;helvetica&amp;#34; , &amp;#34;pingfang sc&amp;#34; , &amp;#34;microsoft yahei&amp;#34; , &amp;#34;source han sans sc&amp;#34; , &amp;#34;noto sans cjk sc&amp;#34; , &amp;#34;wenquanyi micro hei&amp;#34; , sans-serif ; letter-spacing: 0pt ; font-size: 10px&quot;&gt;&lt;br&gt;&lt;/span&gt;&lt;/font&gt;&lt;/p&gt;&lt;p style=&quot;margin: 0px 0px 0px 4px ; font-size: 10px&quot;&gt;&lt;font style=&quot;font-size: 10px&quot;&gt;&lt;span style=&quot;background-color: transparent ; color: rgb(103 , 143 , 0) ; font-family: , &amp;#34;helvetica neue&amp;#34; , &amp;#34;helvetica&amp;#34; , &amp;#34;pingfang sc&amp;#34; , &amp;#34;microsoft yahei&amp;#34; , &amp;#34;source han sans sc&amp;#34; , &amp;#34;noto sans cjk sc&amp;#34; , &amp;#34;wenquanyi micro hei&amp;#34; , sans-serif ; letter-spacing: 0pt ; font-size: 10px&quot;&gt;&lt;br&gt;&lt;/span&gt;&lt;/font&gt;&lt;/p&gt;&lt;font style=&quot;font-size: 10px&quot;&gt;&lt;/font&gt;&lt;div style=&quot;font-size: 10px&quot;&gt;&lt;div class=&quot;document&quot; style=&quot;font-size: 10px&quot;&gt;&lt;p class=&quot;paragraph text-align-type-left pap-line-1.3 pap-line-rule-auto pap-spacing-before-3pt pap-spacing-after-3pt&quot; style=&quot;line-height: 130% ; margin-top: 4px ; margin-bottom: 4px ; font-size: 10px&quot;&gt;&lt;font style=&quot;font-size: 10px&quot;&gt;&lt;span style=&quot;font-family: , &amp;#34;helvetica neue&amp;#34; , &amp;#34;helvetica&amp;#34; , &amp;#34;pingfang sc&amp;#34; , &amp;#34;microsoft yahei&amp;#34; , &amp;#34;source han sans sc&amp;#34; , &amp;#34;noto sans cjk sc&amp;#34; , &amp;#34;wenquanyi micro hei&amp;#34; , sans-serif ; color: rgb(51 , 51 , 51) ; background: transparent ; letter-spacing: 0pt ; vertical-align: baseline ; font-size: 10px&quot;&gt;&lt;/span&gt;&lt;/font&gt;&lt;/p&gt;&lt;/div&gt;&lt;/div&gt;&lt;hr size=&quot;1&quot; style=&quot;font-size: 10px&quot;&gt;&lt;p style=&quot;margin: 0px ; margin-left: 4px&quot;&gt;&lt;br&gt;&lt;/p&gt;&lt;p style=&quot;margin: 0px ; margin-left: 4px&quot;&gt;&lt;br&gt;&lt;/p&gt;" style="verticalAlign=top;align=left;overflow=fill;fontSize=12;fontFamily=Helvetica;html=1;rounded=0;shadow=0;comic=0;labelBackgroundColor=none;strokeWidth=1" vertex="1" parent="1">
          <mxGeometry x="50" y="350" width="240" height="140" as="geometry" />
        </mxCell>
        <mxCell id="L9_oCywaG9pHtZvXco6K-4" value="&lt;p style=&quot;margin: 0px ; margin-top: 4px ; text-align: center&quot;&gt;&lt;b&gt;plan&lt;/b&gt;&lt;/p&gt;&lt;hr size=&quot;1&quot;&gt;&lt;p style=&quot;margin: 0px ; margin-left: 4px&quot;&gt;+ id: uint64&lt;br&gt;+ siteId: uint64 站点&lt;/p&gt;&lt;p style=&quot;margin: 0px 0px 0px 4px&quot;&gt;&lt;span style=&quot;font-size: 10px&quot;&gt;+ status: uint8&amp;nbsp;&lt;/span&gt;&lt;span style=&quot;background-color: transparent ; font-family: , &amp;#34;helvetica neue&amp;#34; , &amp;#34;helvetica&amp;#34; , &amp;#34;pingfang sc&amp;#34; , &amp;#34;microsoft yahei&amp;#34; , &amp;#34;source han sans sc&amp;#34; , &amp;#34;noto sans cjk sc&amp;#34; , &amp;#34;wenquanyi micro hei&amp;#34; , sans-serif ; letter-spacing: 0pt&quot;&gt;&lt;font style=&quot;font-size: 10px&quot; color=&quot;#66cc00&quot;&gt;0 New 新计划 1 Waiting 等待生产 2 Processing 正在生产 3 Finished 生产完成 4 Cancelled 生产取消&lt;/font&gt;&lt;/span&gt;&lt;/p&gt;&lt;p style=&quot;margin: 0px 0px 0px 4px ; font-size: 10px&quot;&gt;&lt;font style=&quot;font-size: 10px&quot;&gt;+ starttime: datetime 计划送达时间&lt;/font&gt;&lt;/p&gt;&lt;span style=&quot;font-size: 10px&quot;&gt;&amp;nbsp;+ projectId: uint64&amp;nbsp;项目id&lt;br&gt;&lt;font color=&quot;#678f00&quot;&gt;&amp;nbsp;&lt;/font&gt;&lt;/span&gt;&lt;span style=&quot;font-size: 10px&quot;&gt;+ projectName: 项目名称&lt;br&gt;&lt;/span&gt;&lt;span style=&quot;font-size: 10px&quot;&gt;&lt;font color=&quot;#678f00&quot;&gt;&amp;nbsp;+ geande: string 强度&lt;br&gt;&amp;nbsp;+ slump: string 坍落度&lt;br&gt;&amp;nbsp;+ dischargeType: uint8 卸料方式。自卸/泵车&lt;br&gt;&lt;/font&gt;&lt;/span&gt;&lt;br&gt;&lt;p style=&quot;margin: 0px 0px 0px 4px ; font-size: 10px&quot;&gt;&lt;font style=&quot;font-size: 10px&quot;&gt;&lt;span style=&quot;background-color: transparent ; color: rgb(103 , 143 , 0) ; font-family: , &amp;#34;helvetica neue&amp;#34; , &amp;#34;helvetica&amp;#34; , &amp;#34;pingfang sc&amp;#34; , &amp;#34;microsoft yahei&amp;#34; , &amp;#34;source han sans sc&amp;#34; , &amp;#34;noto sans cjk sc&amp;#34; , &amp;#34;wenquanyi micro hei&amp;#34; , sans-serif ; letter-spacing: 0pt ; font-size: 10px&quot;&gt;&lt;br&gt;&lt;/span&gt;&lt;/font&gt;&lt;/p&gt;&lt;p style=&quot;margin: 0px 0px 0px 4px ; font-size: 10px&quot;&gt;&lt;font style=&quot;font-size: 10px&quot;&gt;&lt;span style=&quot;background-color: transparent ; color: rgb(103 , 143 , 0) ; font-family: , &amp;#34;helvetica neue&amp;#34; , &amp;#34;helvetica&amp;#34; , &amp;#34;pingfang sc&amp;#34; , &amp;#34;microsoft yahei&amp;#34; , &amp;#34;source han sans sc&amp;#34; , &amp;#34;noto sans cjk sc&amp;#34; , &amp;#34;wenquanyi micro hei&amp;#34; , sans-serif ; letter-spacing: 0pt ; font-size: 10px&quot;&gt;&lt;br&gt;&lt;/span&gt;&lt;/font&gt;&lt;/p&gt;&lt;p style=&quot;margin: 0px 0px 0px 4px ; font-size: 10px&quot;&gt;&lt;font style=&quot;font-size: 10px&quot;&gt;&lt;span style=&quot;background-color: transparent ; color: rgb(103 , 143 , 0) ; font-family: , &amp;#34;helvetica neue&amp;#34; , &amp;#34;helvetica&amp;#34; , &amp;#34;pingfang sc&amp;#34; , &amp;#34;microsoft yahei&amp;#34; , &amp;#34;source han sans sc&amp;#34; , &amp;#34;noto sans cjk sc&amp;#34; , &amp;#34;wenquanyi micro hei&amp;#34; , sans-serif ; letter-spacing: 0pt ; font-size: 10px&quot;&gt;&lt;br&gt;&lt;/span&gt;&lt;/font&gt;&lt;/p&gt;&lt;p style=&quot;margin: 0px 0px 0px 4px ; font-size: 10px&quot;&gt;&lt;font style=&quot;font-size: 10px&quot;&gt;&lt;span style=&quot;background-color: transparent ; color: rgb(103 , 143 , 0) ; font-family: , &amp;#34;helvetica neue&amp;#34; , &amp;#34;helvetica&amp;#34; , &amp;#34;pingfang sc&amp;#34; , &amp;#34;microsoft yahei&amp;#34; , &amp;#34;source han sans sc&amp;#34; , &amp;#34;noto sans cjk sc&amp;#34; , &amp;#34;wenquanyi micro hei&amp;#34; , sans-serif ; letter-spacing: 0pt ; font-size: 10px&quot;&gt;&lt;br&gt;&lt;/span&gt;&lt;/font&gt;&lt;/p&gt;&lt;font style=&quot;font-size: 10px&quot;&gt;&lt;/font&gt;&lt;div style=&quot;font-size: 10px&quot;&gt;&lt;div class=&quot;document&quot; style=&quot;font-size: 10px&quot;&gt;&lt;p class=&quot;paragraph text-align-type-left pap-line-1.3 pap-line-rule-auto pap-spacing-before-3pt pap-spacing-after-3pt&quot; style=&quot;line-height: 130% ; margin-top: 4px ; margin-bottom: 4px ; font-size: 10px&quot;&gt;&lt;font style=&quot;font-size: 10px&quot;&gt;&lt;span style=&quot;font-family: , &amp;#34;helvetica neue&amp;#34; , &amp;#34;helvetica&amp;#34; , &amp;#34;pingfang sc&amp;#34; , &amp;#34;microsoft yahei&amp;#34; , &amp;#34;source han sans sc&amp;#34; , &amp;#34;noto sans cjk sc&amp;#34; , &amp;#34;wenquanyi micro hei&amp;#34; , sans-serif ; color: rgb(51 , 51 , 51) ; background: transparent ; letter-spacing: 0pt ; vertical-align: baseline ; font-size: 10px&quot;&gt;&lt;/span&gt;&lt;/font&gt;&lt;/p&gt;&lt;/div&gt;&lt;/div&gt;&lt;hr size=&quot;1&quot; style=&quot;font-size: 10px&quot;&gt;&lt;p style=&quot;margin: 0px ; margin-left: 4px&quot;&gt;&lt;br&gt;&lt;/p&gt;&lt;p style=&quot;margin: 0px ; margin-left: 4px&quot;&gt;&lt;br&gt;&lt;/p&gt;" style="verticalAlign=top;align=left;overflow=fill;fontSize=12;fontFamily=Helvetica;html=1;rounded=0;shadow=0;comic=0;labelBackgroundColor=none;strokeWidth=1" vertex="1" parent="1">
          <mxGeometry x="50" y="530" width="240" height="160" as="geometry" />
        </mxCell>
        <mxCell id="L9_oCywaG9pHtZvXco6K-5" value="&lt;p style=&quot;margin: 0px ; margin-top: 4px ; text-align: center&quot;&gt;&lt;b&gt;Distance&lt;/b&gt;&lt;/p&gt;&lt;hr size=&quot;1&quot;&gt;&lt;p style=&quot;margin: 0px ; margin-left: 4px&quot;&gt;+ id: uint64&lt;br&gt;+ siteId: uint64 站点&lt;/p&gt;&lt;p style=&quot;margin: 0px 0px 0px 4px&quot;&gt;&lt;/p&gt;&lt;span style=&quot;font-size: 10px&quot;&gt;&amp;nbsp;+ projectId: uint64&amp;nbsp;项目id&lt;br&gt;&lt;font color=&quot;#678f00&quot;&gt;&amp;nbsp;&lt;/font&gt;&lt;/span&gt;&lt;span style=&quot;font-size: 10px&quot;&gt;+ projectName: 项目名称&lt;br&gt;&lt;/span&gt;&lt;span style=&quot;font-size: 10px&quot;&gt;&lt;font color=&quot;#678f00&quot;&gt;&amp;nbsp;+ distanceToProject: float 站点到项目距离&lt;br&gt;&amp;nbsp;+ timeToProject: int 站点到项目时间&lt;br&gt;&amp;nbsp;+ timeInProject: int 站点滞留时间&lt;br&gt;&amp;nbsp;+ distanceToSite: float 项目到站点距离&lt;br&gt;&amp;nbsp;+ timeToSite: int 站点到项目时间&lt;br&gt;&lt;br&gt;&lt;/font&gt;&lt;/span&gt;&lt;p style=&quot;margin: 0px 0px 0px 4px ; font-size: 10px&quot;&gt;&lt;font style=&quot;font-size: 10px&quot;&gt;&lt;span style=&quot;background-color: transparent ; color: rgb(103 , 143 , 0) ; font-family: , &amp;#34;helvetica neue&amp;#34; , &amp;#34;helvetica&amp;#34; , &amp;#34;pingfang sc&amp;#34; , &amp;#34;microsoft yahei&amp;#34; , &amp;#34;source han sans sc&amp;#34; , &amp;#34;noto sans cjk sc&amp;#34; , &amp;#34;wenquanyi micro hei&amp;#34; , sans-serif ; letter-spacing: 0pt ; font-size: 10px&quot;&gt;&lt;br&gt;&lt;/span&gt;&lt;/font&gt;&lt;/p&gt;&lt;p style=&quot;margin: 0px 0px 0px 4px ; font-size: 10px&quot;&gt;&lt;font style=&quot;font-size: 10px&quot;&gt;&lt;span style=&quot;background-color: transparent ; color: rgb(103 , 143 , 0) ; font-family: , &amp;#34;helvetica neue&amp;#34; , &amp;#34;helvetica&amp;#34; , &amp;#34;pingfang sc&amp;#34; , &amp;#34;microsoft yahei&amp;#34; , &amp;#34;source han sans sc&amp;#34; , &amp;#34;noto sans cjk sc&amp;#34; , &amp;#34;wenquanyi micro hei&amp;#34; , sans-serif ; letter-spacing: 0pt ; font-size: 10px&quot;&gt;&lt;br&gt;&lt;/span&gt;&lt;/font&gt;&lt;/p&gt;&lt;font style=&quot;font-size: 10px&quot;&gt;&lt;/font&gt;&lt;div style=&quot;font-size: 10px&quot;&gt;&lt;div class=&quot;document&quot; style=&quot;font-size: 10px&quot;&gt;&lt;p class=&quot;paragraph text-align-type-left pap-line-1.3 pap-line-rule-auto pap-spacing-before-3pt pap-spacing-after-3pt&quot; style=&quot;line-height: 130% ; margin-top: 4px ; margin-bottom: 4px ; font-size: 10px&quot;&gt;&lt;font style=&quot;font-size: 10px&quot;&gt;&lt;span style=&quot;font-family: , &amp;#34;helvetica neue&amp;#34; , &amp;#34;helvetica&amp;#34; , &amp;#34;pingfang sc&amp;#34; , &amp;#34;microsoft yahei&amp;#34; , &amp;#34;source han sans sc&amp;#34; , &amp;#34;noto sans cjk sc&amp;#34; , &amp;#34;wenquanyi micro hei&amp;#34; , sans-serif ; color: rgb(51 , 51 , 51) ; background: transparent ; letter-spacing: 0pt ; vertical-align: baseline ; font-size: 10px&quot;&gt;&lt;/span&gt;&lt;/font&gt;&lt;/p&gt;&lt;/div&gt;&lt;/div&gt;&lt;hr size=&quot;1&quot; style=&quot;font-size: 10px&quot;&gt;&lt;p style=&quot;margin: 0px ; margin-left: 4px&quot;&gt;&lt;br&gt;&lt;/p&gt;&lt;p style=&quot;margin: 0px ; margin-left: 4px&quot;&gt;&lt;br&gt;&lt;/p&gt;" style="verticalAlign=top;align=left;overflow=fill;fontSize=12;fontFamily=Helvetica;html=1;rounded=0;shadow=0;comic=0;labelBackgroundColor=none;strokeWidth=1" vertex="1" parent="1">
          <mxGeometry x="360" y="60" width="240" height="160" as="geometry" />
        </mxCell>
        <mxCell id="L9_oCywaG9pHtZvXco6K-6" value="&lt;p style=&quot;margin: 0px ; margin-top: 4px ; text-align: center&quot;&gt;&lt;b&gt;ProjectUsage&lt;/b&gt;&lt;/p&gt;&lt;hr size=&quot;1&quot;&gt;&lt;p style=&quot;margin: 0px ; margin-left: 4px&quot;&gt;+ id: uint64&lt;br&gt;&lt;/p&gt;&lt;p style=&quot;margin: 0px 0px 0px 4px&quot;&gt;&lt;/p&gt;&lt;span style=&quot;font-size: 10px&quot;&gt;&amp;nbsp;+ projectId: uint64&amp;nbsp;项目id&lt;br&gt;&lt;font color=&quot;#678f00&quot;&gt;&amp;nbsp;&lt;/font&gt;&lt;/span&gt;&lt;span style=&quot;font-size: 10px&quot;&gt;+ projectName: 项目名称&lt;/span&gt;&lt;font color=&quot;#678f00&quot;&gt;&lt;br&gt;&lt;span style=&quot;font-size: 10px&quot;&gt;&amp;nbsp;+ pumpTruckId: uint64 泵车&lt;/span&gt;&lt;br&gt;&lt;span style=&quot;font-size: 10px&quot;&gt;&amp;nbsp;+ mixerTruckId: uint64 罐车&lt;/span&gt;&lt;br&gt;&lt;span style=&quot;font-size: 10px&quot;&gt;&amp;nbsp;+&lt;/span&gt;&lt;/font&gt;&lt;span style=&quot;color: rgb(103 , 143 , 0) ; font-size: 10px&quot;&gt;pumpTruckR&lt;/span&gt;&lt;font color=&quot;#678f00&quot;&gt;&lt;span style=&quot;font-size: 10px&quot;&gt;edundancy&lt;/span&gt;&lt;span style=&quot;font-size: 10px&quot;&gt;: int 最多允许安排泵车数量&lt;br&gt;&lt;/span&gt;&amp;nbsp;+&lt;/font&gt;&lt;span style=&quot;color: rgb(103 , 143 , 0) ; font-size: 10px&quot;&gt;mixerTruck&lt;/span&gt;&lt;span style=&quot;font-size: 10px ; color: rgb(103 , 143 , 0)&quot;&gt;R&lt;/span&gt;&lt;font color=&quot;#678f00&quot;&gt;&lt;span style=&quot;font-size: 10px&quot;&gt;edundancy&lt;/span&gt;&lt;/font&gt;&lt;span style=&quot;color: rgb(103 , 143 , 0) ; font-size: 10px&quot;&gt;: int 最多允许安排罐车数量&lt;/span&gt;&lt;font color=&quot;#678f00&quot;&gt;&lt;br&gt;&lt;/font&gt;&lt;p style=&quot;margin: 0px 0px 0px 4px ; font-size: 10px&quot;&gt;&lt;font style=&quot;font-size: 10px&quot;&gt;&lt;span style=&quot;background-color: transparent ; color: rgb(103 , 143 , 0) ; font-family: , &amp;#34;helvetica neue&amp;#34; , &amp;#34;helvetica&amp;#34; , &amp;#34;pingfang sc&amp;#34; , &amp;#34;microsoft yahei&amp;#34; , &amp;#34;source han sans sc&amp;#34; , &amp;#34;noto sans cjk sc&amp;#34; , &amp;#34;wenquanyi micro hei&amp;#34; , sans-serif ; letter-spacing: 0pt ; font-size: 10px&quot;&gt;&lt;br&gt;&lt;/span&gt;&lt;/font&gt;&lt;/p&gt;&lt;font style=&quot;font-size: 10px&quot;&gt;&lt;/font&gt;&lt;div style=&quot;font-size: 10px&quot;&gt;&lt;div class=&quot;document&quot; style=&quot;font-size: 10px&quot;&gt;&lt;p class=&quot;paragraph text-align-type-left pap-line-1.3 pap-line-rule-auto pap-spacing-before-3pt pap-spacing-after-3pt&quot; style=&quot;line-height: 130% ; margin-top: 4px ; margin-bottom: 4px ; font-size: 10px&quot;&gt;&lt;font style=&quot;font-size: 10px&quot;&gt;&lt;span style=&quot;font-family: , &amp;#34;helvetica neue&amp;#34; , &amp;#34;helvetica&amp;#34; , &amp;#34;pingfang sc&amp;#34; , &amp;#34;microsoft yahei&amp;#34; , &amp;#34;source han sans sc&amp;#34; , &amp;#34;noto sans cjk sc&amp;#34; , &amp;#34;wenquanyi micro hei&amp;#34; , sans-serif ; color: rgb(51 , 51 , 51) ; background: transparent ; letter-spacing: 0pt ; vertical-align: baseline ; font-size: 10px&quot;&gt;&lt;/span&gt;&lt;/font&gt;&lt;/p&gt;&lt;/div&gt;&lt;/div&gt;&lt;hr size=&quot;1&quot; style=&quot;font-size: 10px&quot;&gt;&lt;p style=&quot;margin: 0px ; margin-left: 4px&quot;&gt;&lt;br&gt;&lt;/p&gt;&lt;p style=&quot;margin: 0px ; margin-left: 4px&quot;&gt;&lt;br&gt;&lt;/p&gt;" style="verticalAlign=top;align=left;overflow=fill;fontSize=12;fontFamily=Helvetica;html=1;rounded=0;shadow=0;comic=0;labelBackgroundColor=none;strokeWidth=1" vertex="1" parent="1">
          <mxGeometry x="360" y="260" width="240" height="130" as="geometry" />
        </mxCell>
      </root>
    </mxGraphModel>
  </diagram>
</mxfile>
